# File created by Blade
# Date/Time:  Thu Sep 25 19:36:54 2014
# Frame Rate: 120.000 fps
#------------------------------------------------------
:FULLY-SPECIFIED
:DEGREES
759
root 0.632113 34.014661 -1.854741 98.694393 -1.239639 -31.916917
Spine -36.714785 -2.873746 12.582285
Head -48.366083 29.235317 20.399893
LeftShoulder -17.228751 2.231386 45.989542
LeftArm 50.617438 -48.117861 -17.643286
LeftForeArm 16.908413 -0.000000 16.631443
LeftHand -28.628281 -0.000000 -1.118079
LeftHandThumb1 -26.253704 0.000000 33.147579
RightShoulder -26.747468 1.513133 -31.220222
RightArm -31.771717 -22.299088 52.723528
RightForeArm -45.569793 -0.000000 11.092213
RightHand -1.429954 -0.000000 22.767749
RightHandThumb1 -24.326973 -0.000000 -32.862282
LeftUpLeg -94.640159 26.665393 -1.710439
LeftLeg -12.267919 -0.000000 0.000000
LeftFoot 0.748558 13.371883 -8.544378
LeftToeBase 5.660745 -0.000000 -0.000000
RightUpLeg 19.522314 19.666089 -31.488383
RightLeg 98.725968 -0.000000 -0.000000
RightFoot 30.436884 -17.629518 18.749179
RightToeBase 9.746860 -0.000000 -0.000000
760
root 0.617378 34.019384 -1.852353 98.505313 -1.301501 -32.038929
Spine -36.627690 -2.844738 12.613112
Head -48.269898 29.319242 20.438482
LeftShoulder -17.244168 2.279780 45.960584
LeftArm 50.586426 -48.001077 -17.764401
LeftForeArm 16.877144 -0.000000 16.621065
LeftHand -28.933851 0.000000 -0.971653
LeftHandThumb1 -26.253704 0.000000 33.147579
RightShoulder -26.763991 1.473305 -31.179215
RightArm -31.684304 -22.377243 52.706998
RightForeArm -45.482482 -0.000000 11.073478
RightHand -1.349047 0.000000 22.715738
RightHandThumb1 -24.326973 -0.000000 -32.862282
LeftUpLeg -94.246826 26.845636 -1.450860
LeftLeg -12.392942 -0.000000 0.000000
LeftFoot 0.775533 13.629414 -8.526649
LeftToeBase 5.709408 -0.000000 -0.000000
RightUpLeg 19.531551 19.708359 -31.538837
RightLeg 98.687131 -0.000000 -0.000000
RightFoot 30.467951 -17.641615 18.651323
RightToeBase 9.787636 -0.000000 -0.000000
761
root 0.600302 34.023690 -1.849258 98.305893 -1.347983 -32.158463
Spine -36.547444 -2.802434 12.670389
Head -48.139684 29.422179 20.459779
LeftShoulder -17.204563 2.341250 45.869394
LeftArm 50.468777 -47.917582 -17.761815
LeftForeArm 16.963219 -0.000000 16.613504
LeftHand -28.843792 -0.000000 -1.051937
LeftHandThumb1 -26.253704 0.000000 33.147579
RightShoulder -26.730952 1.516491 -31.144694
RightArm -31.757608 -22.467696 52.658519
RightForeArm -45.401510 -0.000000 11.168844
RightHand -1.285570 0.000000 22.730803
RightHandThumb1 -24.326973 -0.000000 -32.862282
LeftUpLeg -93.836704 27.030621 -1.133048
LeftLeg -12.489223 -0.000000 0.000000
LeftFoot 0.781316 13.911958 -8.504761
LeftToeBase 5.682155 -0.000000 -0.000000
RightUpLeg 19.558070 19.802758 -31.532307
RightLeg 98.623474 -0.000000 -0.000000
RightFoot 30.516495 -17.651256 18.815707
RightToeBase 9.888620 -0.000000 -0.000000
762
root 0.583962 34.027751 -1.844720 98.104361 -1.380970 -32.299451
Spine -36.473695 -2.723469 12.756043
Head -47.969504 29.459783 20.474036
LeftShoulder -17.216937 2.521324 45.721026
LeftArm 50.567115 -47.892612 -17.944043
LeftForeArm 16.837355 -0.000000 16.666711
LeftHand -29.029006 0.000000 -0.503052
LeftHandThumb1 -26.253704 0.000000 33.147579
RightShoulder -26.762799 1.423187 -31.149361
RightArm -31.608734 -22.563899 52.656521
RightForeArm -45.278921 -0.000000 11.141801
RightHand -1.293967 -0.000000 22.702085
RightHandThumb1 -24.326973 -0.000000 -32.862282
LeftUpLeg -93.403265 27.234768 -0.773425
LeftLeg -12.594668 -0.000000 0.000000
LeftFoot 0.793870 14.231626 -8.438290
LeftToeBase 5.773963 -0.000000 -0.000000
RightUpLeg 19.591499 19.975026 -31.484003
RightLeg 98.552393 -0.000000 -0.000000
RightFoot 30.561373 -17.556290 19.134476
RightToeBase 9.681270 -0.000000 -0.000000
